<svg width="16" height="16" viewBox="0 0 16 16" fill="none" xmlns="http://www.w3.org/2000/svg">
<path d="M10.666 5.66671H11.9993C11.9993 3.77537 10.1627 2.91271 8.666 2.71404V1.33337H7.33267V2.71404C5.836 2.91271 3.99934 3.77537 3.99934 5.66671C3.99934 7.47071 5.77667 8.40871 7.33267 8.62004V11.9334C6.36734 11.766 5.33267 11.2507 5.33267 10.3334H3.99934C3.99934 12.0594 5.616 13.0794 7.33267 13.2907V14.6667H8.666V13.2867C10.1627 13.088 11.9993 12.2247 11.9993 10.3334C11.9993 8.44204 10.1627 7.57937 8.666 7.38071V4.06671C9.55267 4.22604 10.666 4.69404 10.666 5.66671ZM5.33267 5.66671C5.33267 4.69404 6.446 4.22604 7.33267 4.06671V7.26604C6.41867 7.09737 5.33267 6.59804 5.33267 5.66671ZM10.666 10.3334C10.666 11.306 9.55267 11.774 8.666 11.9334V8.73337C9.55267 8.89271 10.666 9.36071 10.666 10.3334Z" fill="#05BCCA"/>
</svg>
