<svg width="36" height="24" viewBox="0 0 36 24" fill="none" xmlns="http://www.w3.org/2000/svg">
<rect width="36" height="24" rx="4" fill="#C46A2B"/>
<path fill-rule="evenodd" clip-rule="evenodd" d="M19.47 5.47C19.6106 5.32955 19.8012 5.25066 20 5.25066C20.1988 5.25066 20.3894 5.32955 20.53 5.47L26.53 11.47C26.6705 11.6106 26.7493 11.8012 26.7493 12C26.7493 12.1987 26.6705 12.3894 26.53 12.53L20.53 18.53C20.4613 18.6037 20.3785 18.6628 20.2865 18.7038C20.1945 18.7448 20.0952 18.7668 19.9945 18.7686C19.8938 18.7704 19.7938 18.7518 19.7004 18.7141C19.607 18.6764 19.5222 18.6203 19.451 18.549C19.3797 18.4778 19.3236 18.393 19.2859 18.2996C19.2482 18.2062 19.2296 18.1062 19.2314 18.0055C19.2332 17.9048 19.2552 17.8055 19.2962 17.7135C19.3372 17.6215 19.3963 17.5387 19.47 17.47L24.19 12.75H10C9.80109 12.75 9.61032 12.671 9.46967 12.5303C9.32902 12.3897 9.25 12.1989 9.25 12C9.25 11.8011 9.32902 11.6103 9.46967 11.4697C9.61032 11.329 9.80109 11.25 10 11.25H24.19L19.47 6.53C19.3295 6.38937 19.2507 6.19875 19.2507 6C19.2507 5.80125 19.3295 5.61062 19.47 5.47Z" fill="#D9D9D9"/>
</svg>
