<svg width="18" height="14" viewBox="0 0 18 14" fill="none" xmlns="http://www.w3.org/2000/svg">
<path fill-rule="evenodd" clip-rule="evenodd" d="M10.47 0.469996C10.6106 0.329546 10.8012 0.250656 11 0.250656C11.1988 0.250656 11.3894 0.329546 11.53 0.469996L17.53 6.47C17.6705 6.61062 17.7493 6.80125 17.7493 7C17.7493 7.19875 17.6705 7.38937 17.53 7.53L11.53 13.53C11.4613 13.6037 11.3785 13.6628 11.2865 13.7038C11.1945 13.7448 11.0952 13.7668 10.9945 13.7686C10.8938 13.7704 10.7938 13.7518 10.7004 13.7141C10.607 13.6764 10.5222 13.6203 10.451 13.549C10.3797 13.4778 10.3236 13.393 10.2859 13.2996C10.2482 13.2062 10.2296 13.1062 10.2314 13.0055C10.2332 12.9048 10.2552 12.8055 10.2962 12.7135C10.3372 12.6215 10.3963 12.5387 10.47 12.47L15.19 7.75H1C0.801088 7.75 0.610322 7.67098 0.46967 7.53033C0.329018 7.38967 0.25 7.19891 0.25 7C0.25 6.80108 0.329018 6.61032 0.46967 6.46967C0.610322 6.32901 0.801088 6.25 1 6.25H15.19L10.47 1.53C10.3295 1.38937 10.2507 1.19875 10.2507 0.999996C10.2507 0.801246 10.3295 0.610621 10.47 0.469996Z" fill="#D9D9D9"/>
</svg>
